<svg width="12" height="12" viewBox="0 0 12 12" fill="none" xmlns="http://www.w3.org/2000/svg">
<path d="M7.7625 6.2625L5.14375 8.8875C5.07259 8.9591 4.97594 8.99956 4.875 9C4.8016 8.99897 4.73012 8.97642 4.66942 8.93515C4.60872 8.89388 4.56146 8.83569 4.53351 8.76782C4.50556 8.69994 4.49815 8.62536 4.51219 8.55331C4.52623 8.48126 4.56111 8.41491 4.6125 8.3625L6.59375 6.375H0.5C0.400544 6.375 0.305161 6.33549 0.234835 6.26517C0.164509 6.19484 0.125 6.09946 0.125 6C0.125 5.90054 0.164509 5.80516 0.234835 5.73484C0.305161 5.66451 0.400544 5.625 0.5 5.625H6.59375L4.6125 3.6375C4.57695 3.60364 4.54865 3.56292 4.52931 3.5178C4.50997 3.47267 4.5 3.42409 4.5 3.375C4.5 3.32591 4.50997 3.27733 4.52931 3.2322C4.54865 3.18708 4.57695 3.14636 4.6125 3.1125C4.6469 3.07677 4.68816 3.04835 4.7338 3.02894C4.77944 3.00953 4.82853 2.99952 4.87813 2.99952C4.92772 2.99952 4.97681 3.00953 5.02245 3.02894C5.06809 3.04835 5.10935 3.07677 5.14375 3.1125L7.7625 5.7375L7.78125 5.75625L7.79375 5.76875C7.80638 5.78393 7.81689 5.80075 7.825 5.81875H7.83125C7.8592 5.87285 7.87379 5.93286 7.87379 5.99375C7.87379 6.05464 7.8592 6.11465 7.83125 6.16875H7.825C7.81689 6.18675 7.80638 6.20357 7.79375 6.21875L7.78125 6.23125L7.7625 6.2625ZM11 0.125H7.5C7.40054 0.125 7.30516 0.164509 7.23483 0.234835C7.16451 0.305161 7.125 0.400544 7.125 0.5C7.125 0.599456 7.16451 0.694839 7.23483 0.765165C7.30516 0.835491 7.40054 0.875 7.5 0.875H11C11.0332 0.875 11.0649 0.88817 11.0884 0.911612C11.1118 0.935054 11.125 0.966848 11.125 1V11C11.125 11.0332 11.1118 11.0649 11.0884 11.0884C11.0649 11.1118 11.0332 11.125 11 11.125H7.5C7.40054 11.125 7.30516 11.1645 7.23483 11.2348C7.16451 11.3052 7.125 11.4005 7.125 11.5C7.125 11.5995 7.16451 11.6948 7.23483 11.7652C7.30516 11.8355 7.40054 11.875 7.5 11.875H11C11.2321 11.875 11.4546 11.7828 11.6187 11.6187C11.7828 11.4546 11.875 11.2321 11.875 11V1C11.875 0.767936 11.7828 0.545376 11.6187 0.381282C11.4546 0.217187 11.2321 0.125 11 0.125Z" fill="white"/>
</svg>
